<svg xmlns="http://www.w3.org/2000/svg" viewBox="0 0 340.28 101.3"><defs><style>.cls-1{fill:#edae10;}</style></defs><g id="Layer_2" data-name="Layer 2"><g id="Layer_1-2" data-name="Layer 1"><path class="cls-1" d="M.28,45.49C.28,42,.21,39.15,0,36.37H5.36l.28,5.43h.21a11.63,11.63,0,0,1,10.59-6.2A10,10,0,0,1,26,42.36h.14A14,14,0,0,1,29.88,38a11.53,11.53,0,0,1,7.46-2.37c4.45,0,11.07,2.93,11.07,14.63V70.08h-6V51c0-6.48-2.37-10.38-7.31-10.38a7.93,7.93,0,0,0-7.25,5.57,10.07,10.07,0,0,0-.48,3.06V70.08h-6V49.88c0-5.36-2.36-9.26-7-9.26-3.83,0-6.62,3.06-7.59,6.13a8.38,8.38,0,0,0-.49,3V70.08h-6Z"/><path class="cls-1" d="M59.7,36.37l7.38,19.92c.77,2.23,1.6,4.88,2.16,6.9h.14c.63-2,1.32-4.6,2.16-7l6.69-19.78h6.48l-9.2,24C71.12,72,68.13,77.88,64,81.5a16.64,16.64,0,0,1-7.53,4l-1.53-5.16a16.41,16.41,0,0,0,5.37-3,18.68,18.68,0,0,0,5.15-6.83A4.46,4.46,0,0,0,65.9,69a5.37,5.37,0,0,0-.42-1.61L53,36.37Z"/><path class="cls-1" d="M140.12,84.08H114.88V17.65h25.45q10.74,0,18.5,4A28.14,28.14,0,0,1,170.77,33Q175,40.46,175,50.8t-4.19,17.84a28.07,28.07,0,0,1-12,11.45Q151,84.08,140.12,84.08ZM129.94,72h9.56a25.59,25.59,0,0,0,11.24-2.22,14.67,14.67,0,0,0,6.89-6.91q2.31-4.68,2.31-12.11t-2.31-12a14.61,14.61,0,0,0-6.87-6.88,25.66,25.66,0,0,0-11.23-2.2h-9.59Z"/><path class="cls-1" d="M200.5,68.22V34.41h9.42v5.9h.36a8.77,8.77,0,0,1,3.22-4.77,8.65,8.65,0,0,1,5.19-1.62,14.92,14.92,0,0,1,1.58.09,12.39,12.39,0,0,1,1.48.24v8.33a13.06,13.06,0,0,0-1.89-.36,18.22,18.22,0,0,0-2.21-.15,8,8,0,0,0-3.82.89,6.73,6.73,0,0,0-2.65,2.48,6.89,6.89,0,0,0-1,3.65V68.22Z"/><path class="cls-1" d="M231.62,28.05a5.05,5.05,0,0,1-3.7-1.53,5.1,5.1,0,0,1,0-7.3,5.28,5.28,0,0,1,7.41,0,5.12,5.12,0,0,1,0,7.3A5.09,5.09,0,0,1,231.62,28.05Z"/><rect class="cls-1" x="226.74" y="34.41" width="9.71" height="33.82"/><path class="cls-1" d="M276.85,34.41,264.61,68.22H253.67L241.42,34.41h10.26L259,58.6h.36l7.25-24.19Z"/><path class="cls-1" d="M296.62,68.88a19.06,19.06,0,0,1-9.29-2.12,14.68,14.68,0,0,1-6-6,19.41,19.41,0,0,1-2.09-9.26,19.31,19.31,0,0,1,2.09-9.16,15.16,15.16,0,0,1,5.92-6.14,17.64,17.64,0,0,1,9-2.2A19.12,19.12,0,0,1,302.69,35a14.73,14.73,0,0,1,5.25,3.21,14.52,14.52,0,0,1,3.5,5.36,20.86,20.86,0,0,1,1.25,7.54v2.57H283.12V47.9h20.43a7,7,0,0,0-.91-3.59,6.52,6.52,0,0,0-2.52-2.45,7.51,7.51,0,0,0-3.73-.89,7.62,7.62,0,0,0-3.91,1,7.12,7.12,0,0,0-2.66,2.62,7.39,7.39,0,0,0-1,3.64v5.53a9.16,9.16,0,0,0,1,4.33,6.86,6.86,0,0,0,2.75,2.82,8.55,8.55,0,0,0,4.22,1,9.24,9.24,0,0,0,3-.44,6,6,0,0,0,2.3-1.32A5.63,5.63,0,0,0,303.5,58l9,.58a11.71,11.71,0,0,1-2.8,5.45,14.1,14.1,0,0,1-5.42,3.61A21.22,21.22,0,0,1,296.62,68.88Z"/><path class="cls-1" d="M319,68.22V34.41h9.42v5.9h.36A8.81,8.81,0,0,1,332,35.54a8.7,8.7,0,0,1,5.2-1.62,15.07,15.07,0,0,1,1.58.09,12.39,12.39,0,0,1,1.48.24v8.33a13.06,13.06,0,0,0-1.89-.36,18.24,18.24,0,0,0-2.22-.15,8,8,0,0,0-3.81.89,6.71,6.71,0,0,0-3.62,6.13V68.22Z"/><path class="cls-1" d="M139.84,101.3a50.65,50.65,0,1,1,50.65-50.65A50.71,50.71,0,0,1,139.84,101.3Zm0-97.3a46.65,46.65,0,1,0,46.65,46.65A46.71,46.71,0,0,0,139.84,4Z"/></g></g></svg>